# xmcd CD database file
#
# Track frame offsets:
#	150
#	13856
#	30994
#	50733
#	65971
#	83632
#	98117
#	116623
#	136532
#	156198
#	169646
#	187395
#	207744
#	228362
#
# Disc length: 3275 seconds
#
# Revision: 0
# Processed by: cddbd v1.5.1PL0 Copyright (c) Steve Scherf et al.
# Submitted via: CDex 1.50
#
DISCID=c10cc90e
DTITLE=Woodpickers - Me And Ned Kelly
DYEAR=2005
DGENRE=Country
TTITLE0=Dead Horses
TTITLE1=I Will Be
TTITLE2=Streets Of Surry Hills
TTITLE3=Whirlwind
TTITLE4=Rainbow Gold
TTITLE5=Take Me Home
TTITLE6=Single Night
TTITLE7=Katy's Farewell
TTITLE8=Me And Ned kelly
TTITLE9=Too Many Friends
TTITLE10=Beat Of The Paddle
TTITLE11=Rocky Whelan
TTITLE12=It's Just Us
TTITLE13=What Would Charlie Say
EXTD=YEAR: 2005
EXTT0=
EXTT1=
EXTT2=
EXTT3=
EXTT4=
EXTT5=
EXTT6=
EXTT7=
EXTT8=
EXTT9=
EXTT10=
EXTT11=
EXTT12=
EXTT13=
PLAYORDER=
